<?xml version="1.0" encoding="iso-8859-1"?>
<!-- Generator: Adobe Illustrator 19.0.0, SVG Export Plug-In . SVG Version: 6.00 Build 0)  -->
<svg version="1.1" id="Capa_1" xmlns="http://www.w3.org/2000/svg" xmlns:xlink="http://www.w3.org/1999/xlink" x="0px" y="0px"
	 viewBox="0 0 512 512" style="enable-background:new 0 0 512 512;" xml:space="preserve" fill="red" >
<g>
	<g>
		<path d="M229.768,268.993c-2.862-5.479-7.686-9.517-13.585-11.368c-12.169-3.819-25.187,2.979-29.009,15.152
			c-1.258,4.007,0.97,8.274,4.977,9.531c4.011,1.263,8.274-0.971,9.531-4.977c1.311-4.173,5.772-6.503,9.947-5.197
			c2.023,0.636,3.677,2.02,4.659,3.899c0.981,1.879,1.172,4.026,0.536,6.048c-6.056,19.298-19.292,35.097-37.273,44.488
			c-17.979,9.39-38.507,11.227-57.806,5.175c-4.174-1.311-6.505-5.773-5.195-9.948c0.634-2.022,2.018-3.675,3.897-4.657
			c1.878-0.981,4.025-1.173,6.049-0.537c22.25,6.983,46.774,0.3,62.466-17.026c2.82-3.113,2.581-7.921-0.53-10.741
			c-3.114-2.821-7.922-2.581-10.741,0.53c-11.722,12.944-30.033,17.941-46.642,12.727c-5.899-1.85-12.163-1.293-17.642,1.568
			c-5.48,2.862-9.517,7.686-11.367,13.584c-3.82,12.174,2.978,25.188,15.152,29.01c8.968,2.812,18.151,4.208,27.297,4.208
			c14.488-0.001,28.874-3.503,42.103-10.413c21.58-11.27,37.47-30.24,44.742-53.413
			C233.185,280.739,232.629,274.472,229.768,268.993z"/>
	</g>
</g>
<g>
	<g>
		<path d="M120.504,257.293l-35.383-5.181c-4.16-0.61-8.018,2.266-8.626,6.422c-0.609,4.156,2.266,8.017,6.422,8.626l35.383,5.181
			c0.374,0.055,0.744,0.081,1.112,0.081c3.712,0,6.96-2.722,7.514-6.503C127.534,261.763,124.659,257.903,120.504,257.293z"/>
	</g>
</g>
<g>
	<g>
		<path d="M182.948,202.932c-3.759-1.88-8.324-0.35-10.198,3.41l-15.962,32c-1.876,3.757-0.349,8.324,3.41,10.198
			c1.09,0.544,2.248,0.802,3.388,0.802c2.792,0,5.479-1.543,6.81-4.212l15.962-32C188.233,209.373,186.706,204.807,182.948,202.932z
			"/>
	</g>
</g>
<g>
	<g>
		<path d="M511.6,198.443c-0.645-1.911-2.023-3.487-3.829-4.381l-100.907-49.968c-3.762-1.868-8.326-0.324-10.188,3.44
			c-1.865,3.763-0.323,8.325,3.44,10.188l94.093,46.594l-64.722,130.701c-22.178,44.782-76.652,63.175-121.438,40.999
			c-18.392-9.109-33.134-24.308-41.806-42.978c7.61-23.228,7.241-49.047-2.529-72.936c0.266-0.423,0.527-0.833,0.743-1.173
			c1.063-1.669,1.98-3.112,2.593-4.349l64.723-130.701l23.659,11.716c3.761,1.865,8.326,0.323,10.188-3.44
			c1.865-3.763,0.323-8.325-3.44-10.188l-30.474-15.09c-3.763-1.867-8.326-0.324-10.188,3.44l-65.951,133.18l-67.077-128.42
			c-0.934-1.787-2.539-3.131-4.463-3.735c-1.923-0.602-4.009-0.419-5.797,0.516L59.252,174c-3.722,1.944-5.164,6.537-3.219,10.26
			c1.944,3.723,6.536,5.163,10.26,3.219l112.237-58.623l67.524,129.276c11.158,21.361,13.298,45.886,6.026,69.057
			c-7.27,23.171-23.04,42.077-44.401,53.235c-21.361,11.156-45.888,13.297-69.057,6.026c-23.171-7.27-42.077-23.04-53.235-44.401
			L17.865,212.774l13.198-6.894c3.722-1.944,5.164-6.537,3.219-10.26c-1.944-3.723-6.537-5.164-10.26-3.219L4.085,202.815
			c-3.722,1.944-5.164,6.537-3.219,10.26L71.909,349.09c18.868,36.125,55.803,56.826,93.988,56.825
			c16.493,0,33.221-3.863,48.824-12.013c19.288-10.075,34.176-25.302,43.867-43.118c10.329,16.607,25.079,30.128,42.712,38.859
			c15.054,7.455,31.036,10.984,46.796,10.982c38.992-0.003,76.574-21.617,95.018-58.862l68.097-137.515
			C512.105,202.444,512.246,200.354,511.6,198.443z"/>
	</g>
</g>
<g>
	<g>
		<path d="M407.889,319.491c-7.779-23.045-24.068-41.681-45.865-52.474c-12.732-6.306-26.287-9.5-40.306-9.5
			c-0.308,0-0.617,0.001-0.926,0.004c-4.199,0.043-7.57,3.482-7.528,7.68c0.043,4.173,3.439,7.528,7.602,7.528
			c0.026,0,0.053,0,0.078,0c11.928-0.126,23.482,2.544,34.331,7.916c18.156,8.991,31.725,24.515,38.205,43.711
			c0.677,2.008,0.532,4.16-0.408,6.06c-0.94,1.899-2.563,3.317-4.571,3.995c-2.007,0.678-4.161,0.533-6.06-0.406
			c-1.9-0.942-3.319-2.565-3.997-4.573c-5.124-15.181-15.854-27.456-30.212-34.568c-14.356-7.108-30.625-8.204-45.804-3.076
			c-4.145,1.404-8.654-0.835-10.057-4.98c-0.677-2.007-0.532-4.16,0.407-6.059c0.941-1.899,2.565-3.318,4.574-3.997
			c3.979-1.343,6.115-5.657,4.771-9.637s-5.657-6.113-9.637-4.771c-5.856,1.977-10.593,6.117-13.335,11.656
			c-2.743,5.54-3.165,11.815-1.187,17.675c4.086,12.089,17.239,18.6,29.33,14.521c11.33-3.824,23.473-3.008,34.19,2.297
			c10.718,5.308,18.727,14.471,22.551,25.803c1.976,5.855,6.116,10.591,11.656,13.336c3.241,1.604,6.735,2.415,10.248,2.415
			c2.491,0,4.994-0.408,7.422-1.228c5.857-1.976,10.594-6.116,13.337-11.656C409.444,331.623,409.866,325.347,407.889,319.491z"/>
	</g>
</g>
<g>
	<g>
		<path d="M426.86,268.027l-16.649-31.649c-1.955-3.717-6.553-5.145-10.269-3.19c-3.717,1.956-5.145,6.554-3.19,10.269
			l16.649,31.649c1.362,2.587,4.003,4.066,6.737,4.066c1.193,0,2.404-0.282,3.532-0.876
			C427.387,276.341,428.816,271.743,426.86,268.027z"/>
	</g>
</g>
<g>
	<g>
		<path d="M366.305,216.533c-0.699-4.143-4.62-6.934-8.762-6.235l-35.263,5.942c-4.142,0.698-6.933,4.621-6.234,8.762
			c0.626,3.714,3.845,6.342,7.489,6.342c0.42,0,0.845-0.034,1.272-0.106l35.263-5.942
			C364.213,224.596,367.004,220.673,366.305,216.533z"/>
	</g>
</g>
<g>
</g>
<g>
</g>
<g>
</g>
<g>
</g>
<g>
</g>
<g>
</g>
<g>
</g>
<g>
</g>
<g>
</g>
<g>
</g>
<g>
</g>
<g>
</g>
<g>
</g>
<g>
</g>
<g>
</g>
</svg>
